<svg id="svg" version="1.1" xmlns="http://www.w3.org/2000/svg" xmlns:xlink="http://www.w3.org/1999/xlink" width="400" height="244.44444444444443" viewBox="0, 0, 400,244.44444444444443"><g id="svgg"><path id="path0" d="M293.154 13.183 C 292.818 13.289,291.773 13.759,290.831 14.226 C 289.890 14.694,288.367 15.391,287.446 15.776 C 285.503 16.587,285.330 16.790,283.025 20.977 C 279.931 26.595,280.638 30.085,285.991 35.628 C 289.267 39.021,289.093 38.963,295.619 38.835 C 301.175 38.727,300.876 38.834,303.525 36.001 C 306.469 32.855,307.303 31.237,308.184 26.972 C 308.657 24.682,306.965 20.231,304.847 18.195 C 300.915 14.413,295.973 12.295,293.154 13.183 M297.173 16.150 C 300.271 17.107,300.865 18.330,299.946 21.859 C 299.442 23.790,298.894 24.050,296.105 23.679 C 292.812 23.241,292.778 23.199,292.828 19.690 C 292.888 15.432,293.427 14.993,297.173 16.150 M102.689 36.397 C 99.319 37.562,98.015 38.228,96.333 39.642 C 95.458 40.376,94.384 41.228,93.945 41.535 C 92.520 42.530,92.335 43.192,92.222 47.720 C 92.035 55.208,92.456 56.584,95.603 58.790 C 103.667 64.440,111.394 63.389,116.903 55.892 C 118.374 53.891,117.768 50.917,116.128 52.085 C 115.152 52.780,113.413 53.301,112.069 53.301 C 110.466 53.301,110.175 52.707,110.489 50.085 C 110.624 48.963,110.783 47.498,110.844 46.831 C 111.073 44.302,112.668 44.222,115.762 46.583 C 117.382 47.820,117.604 47.647,117.604 45.151 C 117.604 42.695,117.461 42.460,114.708 40.387 C 108.909 36.020,106.293 35.152,102.689 36.397 M213.936 73.944 C 207.847 75.224,205.587 76.850,202.646 82.067 C 199.031 88.481,198.752 92.003,201.160 100.856 C 201.771 103.103,206.786 107.382,212.405 110.449 L 214.303 111.485 217.403 111.488 C 224.408 111.495,227.103 110.491,231.851 106.106 C 237.012 101.338,237.942 98.653,237.556 89.628 C 237.354 84.900,237.310 84.784,234.201 80.807 C 231.815 77.756,228.093 74.810,225.672 74.059 C 224.298 73.633,215.812 73.549,213.936 73.944 M228.287 80.073 C 230.109 81.349,231.711 85.384,230.993 86.889 C 230.356 88.225,225.780 90.435,224.589 89.982 C 223.948 89.738,222.059 86.886,221.852 85.848 C 221.422 83.699,226.701 78.962,228.287 80.073 M254.401 136.215 C 251.670 136.552,251.106 137.113,251.102 139.496 C 251.093 144.095,249.118 145.827,244.050 145.677 C 239.382 145.538,239.120 145.314,239.120 141.445 C 239.120 139.351,238.896 138.529,238.448 138.977 C 238.365 139.060,238.169 141.102,238.013 143.514 C 237.657 149.028,237.795 148.824,233.845 149.637 C 230.131 150.401,229.668 150.343,228.019 148.900 C 227.251 148.227,226.566 147.677,226.498 147.677 C 226.220 147.677,225.247 148.298,224.088 149.215 L 222.861 150.186 220.538 150.048 C 218.064 149.901,216.491 149.512,213.936 148.416 C 212.429 147.770,212.106 147.728,207.655 147.611 C 200.701 147.428,200.814 147.519,200.762 142.042 C 200.721 137.680,200.632 137.647,194.441 139.721 C 186.596 142.350,185.586 143.055,183.963 147.037 C 178.847 159.585,182.632 173.384,197.229 195.399 C 201.356 201.625,201.757 202.019,206.343 204.360 C 210.808 206.638,210.738 206.649,211.732 203.545 C 214.643 194.457,219.358 191.216,227.031 193.029 C 230.375 193.820,230.085 193.632,234.450 197.843 C 239.334 202.556,238.906 202.496,243.202 199.064 C 251.922 192.095,259.864 179.395,266.356 162.036 C 268.572 156.109,269.983 144.541,268.945 140.804 C 268.658 139.769,265.725 136.587,264.700 136.197 C 263.906 135.895,256.888 135.907,254.401 136.215 " stroke="none" fill="#070906" fill-rule="evenodd"></path><path id="path1" d="M289.364 2.691 C 269.220 4.505,256.903 26.437,265.646 44.923 C 269.381 52.821,274.610 57.062,285.060 60.667 C 289.606 62.235,289.787 62.407,289.129 64.504 C 287.664 69.171,283.354 76.784,278.654 83.007 C 271.775 92.117,271.156 92.784,269.929 92.410 C 268.526 91.982,258.534 86.779,258.260 86.334 C 257.967 85.859,257.754 84.321,257.208 78.729 C 256.270 69.140,253.660 63.208,246.939 55.391 C 229.045 34.578,195.974 36.004,179.508 58.297 C 173.866 65.937,171.681 72.951,171.459 84.137 C 171.304 91.972,171.163 92.157,168.454 88.089 C 162.391 78.984,154.676 70.468,147.350 64.792 C 143.937 62.148,143.906 62.080,144.605 58.757 C 148.229 41.521,142.159 27.707,127.793 20.498 C 119.747 16.460,107.702 16.314,99.832 20.157 C 71.763 33.868,76.854 75.131,107.343 81.034 C 116.558 82.818,124.550 80.908,133.694 74.734 C 135.618 73.435,137.379 72.372,137.606 72.373 C 139.677 72.377,147.306 81.005,156.633 93.888 C 159.725 98.160,159.728 98.203,157.020 100.014 C 124.106 122.026,95.446 160.702,85.682 196.281 C 84.994 198.789,84.804 198.869,79.951 198.690 C 73.770 198.462,69.366 197.424,66.057 195.413 C 58.547 190.850,54.909 185.531,53.675 177.308 C 52.604 170.181,53.608 167.122,59.228 160.391 C 63.336 155.470,65.792 152.065,67.359 149.114 C 69.625 144.848,71.663 142.277,75.165 139.266 C 77.882 136.929,77.852 136.985,77.954 133.985 C 78.059 130.897,77.968 130.764,74.939 129.597 C 68.650 127.174,65.035 128.754,60.711 135.817 C 57.081 141.746,57.099 141.730,55.395 140.731 C 50.900 138.097,50.128 135.967,49.144 123.472 C 48.374 113.700,46.202 106.112,44.174 106.112 C 43.459 106.112,37.883 107.586,37.110 107.980 C 35.766 108.663,35.638 111.095,36.575 118.152 C 37.968 128.643,38.032 133.912,36.773 134.395 C 35.916 134.724,34.697 132.607,30.686 123.823 C 25.334 112.102,21.786 108.568,17.558 110.747 C 12.601 113.303,13.259 118.408,20.161 130.929 C 26.329 142.118,24.379 143.056,16.051 132.908 C 10.804 126.515,10.049 125.917,6.611 125.429 C 1.898 124.761,1.731 124.936,3.109 129.095 C 4.479 133.229,6.530 136.291,11.098 141.022 C 14.784 144.840,16.488 147.042,19.211 151.508 C 25.923 162.518,26.921 163.434,37.011 167.831 C 41.785 169.912,42.269 170.522,44.729 177.556 C 47.721 186.108,50.198 190.347,54.993 195.110 C 61.074 201.153,66.082 203.113,79.933 204.873 C 83.485 205.324,83.364 205.030,83.194 212.804 C 82.848 228.673,86.369 235.284,96.821 238.388 C 100.717 239.545,108.114 240.010,112.667 239.384 C 113.567 239.260,115.293 239.031,116.504 238.874 C 122.852 238.053,136.404 235.675,147.800 233.382 C 152.103 232.516,156.559 231.642,157.702 231.440 C 158.845 231.239,162.200 230.638,165.159 230.105 C 184.474 226.628,189.704 225.923,203.667 224.914 C 208.417 224.571,223.421 224.579,227.847 224.927 C 239.227 225.822,242.869 226.230,251.100 227.535 C 258.907 228.772,261.115 229.143,265.403 229.943 C 267.824 230.394,270.575 230.892,271.516 231.049 C 272.457 231.207,275.703 231.816,278.729 232.403 C 281.754 232.991,287.090 234.025,290.587 234.702 C 325.287 241.424,334.784 241.277,342.505 233.900 C 355.680 221.312,347.565 183.349,323.483 144.910 C 320.295 139.821,320.154 140.122,326.409 138.641 C 342.725 134.779,348.698 129.363,355.380 112.370 C 358.721 103.874,358.513 104.116,364.535 101.716 C 372.131 98.690,374.707 96.313,380.307 87.164 C 383.164 82.496,384.537 80.621,387.432 77.432 C 394.713 69.413,395.614 68.082,397.299 62.846 C 398.583 58.859,398.364 58.655,394.023 59.783 C 389.735 60.897,389.017 61.449,384.009 67.482 C 377.663 75.127,375.574 76.503,376.991 72.103 C 377.610 70.180,380.140 64.955,381.624 62.531 C 384.268 58.215,385.153 55.873,385.706 51.727 C 386.375 46.723,386.222 46.279,383.481 45.241 C 381.067 44.328,380.458 44.330,378.713 45.260 C 374.675 47.412,372.867 50.049,368.978 59.456 C 365.951 66.777,363.279 70.369,362.766 67.804 C 362.611 67.026,362.927 61.146,363.298 57.946 C 365.054 42.757,365.079 42.948,361.125 41.507 C 355.975 39.632,355.701 39.685,354.354 42.810 C 352.655 46.753,351.741 51.090,350.982 58.802 C 350.286 65.874,349.340 71.581,348.648 72.873 C 348.495 73.160,347.344 73.886,346.062 74.506 C 343.274 75.854,342.968 75.790,341.616 73.580 C 335.011 62.781,333.399 61.733,326.249 63.588 C 322.818 64.478,322.493 64.708,322.498 66.236 C 322.508 69.444,323.384 71.334,326.606 75.105 C 329.547 78.546,330.694 80.138,333.007 83.985 C 335.164 87.572,336.486 89.380,340.021 93.577 C 346.892 101.735,347.865 104.014,347.070 110.076 C 345.183 124.448,336.685 131.589,320.068 132.765 C 315.249 133.106,315.714 133.351,311.350 128.164 C 302.413 117.542,292.314 107.927,283.623 101.766 C 279.596 98.911,279.618 99.105,282.885 95.269 C 291.168 85.541,294.422 79.677,298.529 67.076 C 300.790 60.138,300.422 60.694,303.961 58.889 C 329.319 45.961,326.443 12.737,299.173 3.578 C 297.538 3.029,292.966 2.359,291.687 2.480 C 291.485 2.500,290.440 2.595,289.364 2.691 M297.677 13.623 C 300.872 14.620,305.555 18.093,306.745 20.349 C 307.357 21.508,308.359 26.123,308.184 26.972 C 307.303 31.237,306.469 32.855,303.525 36.001 C 300.876 38.834,301.175 38.727,295.619 38.835 C 289.093 38.963,289.267 39.021,285.991 35.628 C 280.638 30.085,279.931 26.595,283.025 20.977 C 285.330 16.790,285.503 16.587,287.446 15.776 C 288.367 15.391,289.890 14.694,290.831 14.226 C 293.605 12.848,294.845 12.739,297.677 13.623 M287.653 14.573 C 287.384 14.776,286.669 15.248,286.064 15.620 C 285.113 16.206,284.681 16.794,282.885 19.946 L 280.807 23.594 280.807 26.406 C 280.807 30.347,281.582 31.919,285.533 35.991 C 289.030 39.595,288.748 39.493,295.110 39.463 C 301.275 39.434,301.125 39.488,304.169 36.201 C 306.904 33.246,306.920 33.220,308.183 29.477 C 309.292 26.193,309.535 25.941,310.153 27.435 C 311.694 31.155,310.471 38.540,307.622 42.719 C 298.298 56.396,277.260 52.309,273.092 36.011 C 270.991 27.797,276.588 17.619,284.762 14.787 C 286.762 14.095,288.450 13.969,287.653 14.573 M293.261 16.248 C 292.590 17.272,292.624 22.399,293.305 22.954 C 294.214 23.695,298.237 24.094,299.010 23.520 C 300.416 22.477,300.791 18.434,299.583 17.353 C 297.908 15.855,293.970 15.167,293.261 16.248 M297.135 16.788 C 299.597 17.571,300.028 18.364,299.479 21.099 C 299.063 23.170,298.742 23.358,296.164 23.046 C 293.547 22.729,293.399 22.568,293.399 20.062 C 293.399 16.129,293.842 15.740,297.135 16.788 M120.001 28.328 C 137.096 34.090,140.945 55.960,126.840 67.184 C 117.375 74.715,101.475 72.120,95.538 62.076 C 93.860 59.237,94.253 58.916,97.267 60.661 C 101.754 63.258,107.791 63.656,111.721 61.613 C 112.852 61.025,117.747 56.073,118.081 55.180 C 118.449 54.192,118.397 51.782,117.980 50.554 C 117.670 49.641,117.669 49.372,117.969 48.528 C 119.267 44.884,118.365 42.362,114.798 39.670 C 107.621 34.252,102.776 34.011,96.245 38.747 C 94.284 40.169,94.079 39.379,95.710 36.693 C 100.196 29.309,111.432 25.440,120.001 28.328 M108.707 36.669 C 110.714 37.579,112.213 38.508,114.708 40.387 C 117.461 42.460,117.604 42.695,117.604 45.151 C 117.604 47.647,117.382 47.820,115.762 46.583 C 112.668 44.222,111.073 44.302,110.844 46.831 C 110.783 47.498,110.624 48.963,110.489 50.085 C 110.175 52.707,110.466 53.301,112.069 53.301 C 113.413 53.301,115.152 52.780,116.128 52.085 C 117.768 50.917,118.374 53.891,116.903 55.892 C 111.394 63.389,103.667 64.440,95.603 58.790 C 92.456 56.584,92.035 55.208,92.222 47.720 C 92.335 43.192,92.520 42.530,93.945 41.535 C 94.384 41.228,95.458 40.376,96.333 39.642 C 100.333 36.279,105.244 35.099,108.707 36.669 M114.349 46.359 C 115.567 47.058,117.115 48.864,117.115 49.587 C 117.115 50.957,114.545 52.578,112.270 52.642 C 111.158 52.674,110.970 52.260,111.128 50.122 C 111.494 45.158,111.745 44.866,114.349 46.359 M220.613 51.573 C 240.995 56.211,251.432 76.970,243.184 96.471 C 236.941 111.233,218.285 119.090,203.171 113.323 C 178.692 103.981,174.206 72.732,195.110 57.172 C 202.491 51.677,211.948 49.601,220.613 51.573 M214.535 73.200 C 207.673 74.519,205.371 76.099,202.153 81.700 C 198.459 88.127,198.125 91.929,200.487 100.674 C 201.269 103.569,206.152 107.846,212.524 111.217 L 214.548 112.288 218.460 112.144 C 223.095 111.973,225.188 111.561,227.224 110.418 C 230.715 108.460,235.652 103.585,237.118 100.650 C 238.354 98.175,238.597 86.185,237.450 84.245 C 234.446 79.162,229.194 74.384,225.550 73.420 C 223.720 72.936,216.643 72.794,214.535 73.200 M225.672 74.059 C 228.093 74.810,231.815 77.756,234.201 80.807 C 237.310 84.784,237.354 84.900,237.556 89.628 C 237.942 98.653,237.012 101.338,231.851 106.106 C 227.103 110.491,224.408 111.495,217.403 111.488 L 214.303 111.485 212.405 110.449 C 206.786 107.382,201.771 103.103,201.160 100.856 C 198.752 92.003,199.031 88.481,202.646 82.067 C 205.587 76.850,207.847 75.224,213.936 73.944 C 215.812 73.549,224.298 73.633,225.672 74.059 M224.520 81.724 C 221.323 84.837,221.212 85.310,223.010 88.155 C 224.534 90.569,224.996 90.617,228.609 88.737 C 231.757 87.099,232.066 85.315,229.791 81.909 C 227.876 79.040,227.295 79.020,224.520 81.724 M228.595 81.357 C 231.516 84.890,231.264 86.767,227.637 88.491 C 224.947 89.769,224.674 89.711,223.379 87.578 C 222.054 85.397,222.125 85.118,224.648 82.594 C 227.106 80.136,227.487 80.017,228.595 81.357 M264.700 136.197 C 265.725 136.587,268.658 139.769,268.945 140.804 C 269.983 144.541,268.572 156.109,266.356 162.036 C 259.864 179.395,251.922 192.095,243.202 199.064 C 238.906 202.496,239.334 202.556,234.450 197.843 C 230.085 193.632,230.375 193.820,227.031 193.029 C 219.358 191.216,214.643 194.457,211.732 203.545 C 210.738 206.649,210.808 206.638,206.343 204.360 C 201.757 202.019,201.356 201.625,197.229 195.399 C 182.632 173.384,178.847 159.585,183.963 147.037 C 185.586 143.055,186.596 142.350,194.441 139.721 C 200.632 137.647,200.721 137.680,200.762 142.042 C 200.814 147.519,200.701 147.428,207.655 147.611 C 212.106 147.728,212.429 147.770,213.936 148.416 C 216.491 149.512,218.064 149.901,220.538 150.048 L 222.861 150.186 224.088 149.215 C 225.247 148.298,226.220 147.677,226.498 147.677 C 226.566 147.677,227.251 148.227,228.019 148.900 C 229.668 150.343,230.131 150.401,233.845 149.637 C 237.795 148.824,237.657 149.028,238.013 143.514 C 238.169 141.102,238.365 139.060,238.448 138.977 C 238.896 138.529,239.120 139.351,239.120 141.445 C 239.120 145.314,239.382 145.538,244.050 145.677 C 249.118 145.827,251.093 144.095,251.102 139.496 C 251.104 138.206,251.585 136.910,252.154 136.661 C 253.586 136.033,263.322 135.673,264.700 136.197 M250.122 137.164 C 250.680 137.722,250.709 138.127,250.350 140.341 C 249.675 144.498,248.409 145.378,243.534 145.074 C 239.947 144.850,239.780 144.671,239.892 141.165 C 239.997 137.920,240.044 137.872,243.546 137.445 C 244.944 137.275,246.748 137.045,247.555 136.935 C 248.362 136.825,249.160 136.721,249.328 136.705 C 249.496 136.688,249.853 136.895,250.122 137.164 M211.736 138.387 C 221.874 139.192,230.948 139.225,235.716 138.475 C 237.378 138.213,237.493 138.571,237.295 143.384 C 237.085 148.500,237.246 148.262,233.456 149.064 C 230.173 149.759,229.814 149.701,228.312 148.232 C 226.779 146.732,226.198 146.743,224.205 148.308 L 222.676 149.510 220.863 149.453 C 218.694 149.386,216.719 148.904,213.995 147.778 C 212.006 146.957,211.916 146.944,208.249 146.929 C 201.404 146.902,201.467 146.944,201.467 142.512 C 201.467 139.197,201.660 138.247,202.370 138.078 C 202.964 137.936,208.260 138.111,211.736 138.387 M226.295 193.518 C 229.961 194.311,229.885 194.264,233.933 198.221 C 238.720 202.900,238.942 202.413,230.807 205.093 C 223.411 207.530,218.037 208.248,213.869 207.355 C 211.409 206.829,211.336 205.815,213.410 201.004 C 215.572 195.990,217.120 194.505,221.330 193.401 C 223.548 192.820,223.009 192.808,226.295 193.518 " stroke="none" fill="#84cc05" fill-rule="evenodd"></path><path id="path2" d="M0.000 122.249 L 0.000 244.499 200.000 244.499 L 400.000 244.499 400.000 122.249 L 400.000 0.000 200.000 0.000 L 0.000 0.000 0.000 122.249 M294.664 2.693 C 306.070 3.775,317.487 13.597,320.464 24.889 C 324.034 38.429,317.438 52.018,303.961 58.889 C 300.422 60.694,300.790 60.138,298.529 67.076 C 294.422 79.677,291.168 85.541,282.885 95.269 C 279.618 99.105,279.596 98.911,283.623 101.766 C 292.314 107.927,302.413 117.542,311.350 128.164 C 315.714 133.351,315.249 133.106,320.068 132.765 C 336.685 131.589,345.183 124.448,347.070 110.076 C 347.865 104.014,346.892 101.735,340.021 93.577 C 336.486 89.380,335.164 87.572,333.007 83.985 C 330.694 80.138,329.547 78.546,326.606 75.105 C 323.384 71.334,322.508 69.444,322.498 66.236 C 322.493 64.708,322.818 64.478,326.249 63.588 C 333.399 61.733,335.011 62.781,341.616 73.580 C 342.968 75.790,343.274 75.854,346.062 74.506 C 347.344 73.886,348.495 73.160,348.648 72.873 C 349.340 71.581,350.286 65.874,350.982 58.802 C 351.741 51.090,352.655 46.753,354.354 42.810 C 355.701 39.685,355.975 39.632,361.125 41.507 C 365.079 42.948,365.054 42.757,363.298 57.946 C 362.927 61.146,362.611 67.026,362.766 67.804 C 363.279 70.369,365.951 66.777,368.978 59.456 C 374.191 46.845,377.960 43.151,383.481 45.241 C 386.222 46.279,386.375 46.723,385.706 51.727 C 385.153 55.873,384.268 58.215,381.624 62.531 C 380.140 64.955,377.610 70.180,376.991 72.103 C 375.574 76.503,377.663 75.127,384.009 67.482 C 389.017 61.449,389.735 60.897,394.023 59.783 C 398.364 58.655,398.583 58.859,397.299 62.846 C 395.614 68.082,394.713 69.413,387.432 77.432 C 384.537 80.621,383.164 82.496,380.307 87.164 C 374.707 96.313,372.131 98.690,364.535 101.716 C 358.513 104.116,358.721 103.874,355.380 112.370 C 348.698 129.363,342.725 134.779,326.409 138.641 C 320.154 140.122,320.295 139.821,323.483 144.910 C 334.614 162.677,340.667 176.077,345.332 193.276 C 351.495 216.003,349.658 229.599,339.537 236.148 C 331.806 241.151,322.448 240.874,290.587 234.702 C 287.090 234.025,281.754 232.991,278.729 232.403 C 275.703 231.816,272.457 231.207,271.516 231.049 C 270.575 230.892,267.824 230.394,265.403 229.943 C 261.115 229.143,258.907 228.772,251.100 227.535 C 242.869 226.230,239.227 225.822,227.847 224.927 C 223.421 224.579,208.417 224.571,203.667 224.914 C 189.704 225.923,184.474 226.628,165.159 230.105 C 162.200 230.638,158.845 231.239,157.702 231.440 C 156.559 231.642,152.103 232.516,147.800 233.382 C 136.404 235.675,122.852 238.053,116.504 238.874 C 115.293 239.031,113.567 239.260,112.667 239.384 C 108.114 240.010,100.717 239.545,96.821 238.388 C 86.369 235.284,82.848 228.673,83.194 212.804 C 83.364 205.030,83.485 205.324,79.933 204.873 C 66.082 203.113,61.074 201.153,54.993 195.110 C 50.198 190.347,47.721 186.108,44.729 177.556 C 42.269 170.522,41.785 169.912,37.011 167.831 C 26.921 163.434,25.923 162.518,19.211 151.508 C 16.488 147.042,14.784 144.840,11.098 141.022 C 6.530 136.291,4.479 133.229,3.109 129.095 C 1.731 124.936,1.898 124.761,6.611 125.429 C 10.049 125.917,10.804 126.515,16.051 132.908 C 24.379 143.056,26.329 142.118,20.161 130.929 C 13.259 118.408,12.601 113.303,17.558 110.747 C 21.786 108.568,25.334 112.102,30.686 123.823 C 34.697 132.607,35.916 134.724,36.773 134.395 C 38.032 133.912,37.968 128.643,36.575 118.152 C 35.638 111.095,35.766 108.663,37.110 107.980 C 37.883 107.586,43.459 106.112,44.174 106.112 C 46.202 106.112,48.374 113.700,49.144 123.472 C 50.128 135.967,50.900 138.097,55.395 140.731 C 57.099 141.730,57.081 141.746,60.711 135.817 C 65.035 128.754,68.650 127.174,74.939 129.597 C 77.968 130.764,78.059 130.897,77.954 133.985 C 77.852 136.985,77.882 136.929,75.165 139.266 C 71.663 142.277,69.625 144.848,67.359 149.114 C 65.792 152.065,63.336 155.470,59.228 160.391 C 53.608 167.122,52.604 170.181,53.675 177.308 C 54.909 185.531,58.547 190.850,66.057 195.413 C 69.366 197.424,73.770 198.462,79.951 198.690 C 84.804 198.869,84.994 198.789,85.682 196.281 C 95.446 160.702,124.106 122.026,157.020 100.014 C 159.728 98.203,159.725 98.160,156.633 93.888 C 147.306 81.005,139.677 72.377,137.606 72.373 C 137.379 72.372,135.618 73.435,133.694 74.734 C 119.077 84.603,102.608 83.771,90.814 72.568 C 74.896 57.447,79.613 30.034,99.832 20.157 C 107.702 16.314,119.747 16.460,127.793 20.498 C 142.159 27.707,148.229 41.521,144.605 58.757 C 143.906 62.080,143.937 62.148,147.350 64.792 C 154.676 70.468,162.391 78.984,168.454 88.089 C 171.163 92.157,171.304 91.972,171.459 84.137 C 171.681 72.951,173.866 65.937,179.508 58.297 C 195.974 36.004,229.045 34.578,246.939 55.391 C 253.660 63.208,256.270 69.140,257.208 78.729 C 257.754 84.321,257.967 85.859,258.260 86.334 C 258.534 86.779,268.526 91.982,269.929 92.410 C 271.156 92.784,271.775 92.117,278.654 83.007 C 283.354 76.784,287.664 69.171,289.129 64.504 C 289.787 62.407,289.606 62.235,285.060 60.667 C 274.610 57.062,269.381 52.821,265.646 44.923 C 256.903 26.437,269.220 4.505,289.364 2.691 C 290.440 2.595,291.485 2.500,291.687 2.480 C 291.889 2.461,293.228 2.557,294.664 2.693 M284.762 14.787 C 276.588 17.619,270.991 27.797,273.092 36.011 C 277.260 52.309,298.298 56.396,307.622 42.719 C 310.471 38.540,311.694 31.155,310.153 27.435 C 309.535 25.941,309.292 26.193,308.183 29.477 C 306.920 33.220,306.904 33.246,304.169 36.201 C 301.125 39.488,301.275 39.434,295.110 39.463 C 288.748 39.493,289.030 39.595,285.533 35.991 C 281.582 31.919,280.807 30.347,280.807 26.406 L 280.807 23.594 282.885 19.946 C 284.681 16.794,285.113 16.206,286.064 15.620 C 288.159 14.330,288.269 14.202,287.286 14.206 C 286.815 14.208,285.680 14.470,284.762 14.787 M294.189 16.338 C 293.418 16.836,293.057 21.445,293.719 22.350 C 294.222 23.038,298.119 23.457,298.745 22.890 C 299.197 22.481,299.756 20.358,299.756 19.052 C 299.756 17.690,295.390 15.562,294.189 16.338 M109.614 27.636 C 103.228 28.783,95.573 34.541,94.712 38.847 C 94.516 39.830,94.775 39.813,96.245 38.747 C 102.776 34.011,107.621 34.252,114.798 39.670 C 118.365 42.362,119.267 44.884,117.969 48.528 C 117.669 49.372,117.670 49.641,117.980 50.554 C 118.397 51.782,118.449 54.192,118.081 55.180 C 117.747 56.073,112.852 61.025,111.721 61.613 C 107.791 63.656,101.754 63.258,97.267 60.661 C 94.253 58.916,93.860 59.237,95.538 62.076 C 101.475 72.120,117.375 74.715,126.840 67.184 C 144.814 52.881,132.062 23.606,109.614 27.636 M111.898 45.838 C 111.503 46.233,111.353 47.068,111.128 50.122 C 110.970 52.260,111.158 52.674,112.270 52.642 C 114.545 52.578,117.115 50.957,117.115 49.587 C 117.115 47.935,112.860 44.877,111.898 45.838 M208.802 51.216 C 193.049 54.230,181.842 67.417,181.886 82.885 C 181.962 109.284,210.624 124.145,232.641 109.200 C 248.557 98.396,250.690 74.515,236.986 60.536 C 230.075 53.486,217.929 49.469,208.802 51.216 M225.550 73.420 C 229.194 74.384,234.446 79.162,237.450 84.245 C 238.597 86.185,238.354 98.175,237.118 100.650 C 235.652 103.585,230.715 108.460,227.224 110.418 C 225.188 111.561,223.095 111.973,218.460 112.144 L 214.548 112.288 212.524 111.217 C 206.152 107.846,201.269 103.569,200.487 100.674 C 198.125 91.929,198.459 88.127,202.153 81.700 C 205.371 76.099,207.673 74.519,214.535 73.200 C 216.643 72.794,223.720 72.936,225.550 73.420 M224.648 82.594 C 222.125 85.118,222.054 85.397,223.379 87.578 C 224.674 89.711,224.947 89.769,227.637 88.491 C 230.777 86.999,231.228 86.025,229.958 83.483 C 228.154 79.874,227.481 79.761,224.648 82.594 M247.555 136.935 C 246.748 137.045,244.944 137.275,243.546 137.445 C 240.044 137.872,239.997 137.920,239.892 141.165 C 239.780 144.671,239.947 144.850,243.534 145.074 C 248.409 145.378,249.675 144.498,250.350 140.341 C 250.758 137.828,250.412 136.599,249.328 136.705 C 249.160 136.721,248.362 136.825,247.555 136.935 M202.370 138.078 C 201.660 138.247,201.467 139.197,201.467 142.512 C 201.467 146.944,201.404 146.902,208.249 146.929 C 211.916 146.944,212.006 146.957,213.995 147.778 C 216.719 148.904,218.694 149.386,220.863 149.453 L 222.676 149.510 224.205 148.308 C 226.198 146.743,226.779 146.732,228.312 148.232 C 229.814 149.701,230.173 149.759,233.456 149.064 C 237.246 148.262,237.085 148.500,237.295 143.384 C 237.493 138.571,237.378 138.213,235.716 138.475 C 230.948 139.225,221.874 139.192,211.736 138.387 C 208.260 138.111,202.964 137.936,202.370 138.078 M221.330 193.401 C 217.120 194.505,215.572 195.990,213.410 201.004 C 211.336 205.815,211.409 206.829,213.869 207.355 C 218.037 208.248,223.411 207.530,230.807 205.093 C 238.942 202.413,238.720 202.900,233.933 198.221 C 229.885 194.264,229.961 194.311,226.295 193.518 C 223.009 192.808,223.548 192.820,221.330 193.401 " stroke="none" fill="#fbfbfb" fill-rule="evenodd"></path></g></svg>