<?xml version="1.0" standalone="yes"?>
<svg xmlns="http://www.w3.org/2000/svg" width="246" height="160">
<path style="fill:#ffffff; stroke:none;" d="M0 0L0 160L246 160L246 0L0 0z"/>
<path style="fill:#e4ffa7; stroke:none;" d="M170 3L171 4L170 3z"/>
<path style="fill:#b6e058; stroke:none;" d="M171 3L172 4L171 3z"/>
<path style="fill:#82b71e; stroke:none;" d="M172 3C173.769 3.77893 175.036 3.91241 177 4C175.231 3.22107 173.964 3.08759 172 3z"/>
<path style="fill:#d1eb92; stroke:none;" d="M177 3L178 4L177 3z"/>
<path style="fill:#80c805; stroke:none;" d="M173 36C172.33 38.8179 171.497 41.4416 170.096 44C167.449 48.833 160.436 58.7883 155.028 50.5849C153.445 48.1839 154.015 44.6973 153.2 42C151.205 35.3973 145.49 29.3129 139 26.9699C119.019 19.756 101.273 37.1437 106 57C103.208 57.1537 100.678 57.8567 98 57C93.8188 62.0624 87.7801 65.5518 82.9861 70.0934C71.3992 81.0701 56.8563 99.3152 56 116C52.9894 115.992 49.8933 116.127 47 115.146C44.8588 114.42 42.8485 113.226 41.2137 111.66C31.8888 102.728 40.4077 94.0411 45.946 86.0394C47.2912 84.0958 50.3828 81.6967 50.365 79.1389C50.3469 76.5454 47.0187 75.9922 45.0895 76.6474C42.175 77.6372 41.0217 80.394 40 83C32.054 78.9953 36.7263 71.3824 32.6829 65.3333C28.5406 59.1364 27.0782 69.3406 27.4244 71.9985C27.7313 74.3549 27.9509 76.6229 28 79C24.6915 75.7264 23.1983 68.2263 18.8457 66.4074C16.231 65.3147 15.1211 67.8712 15.1667 70.0448C15.2624 74.609 18.732 78.6892 20 83C16.275 79.1109 13.5649 74.8659 8 74C8.75776 79.6582 12.4542 82.5969 15.7006 87.0147C17.7947 89.8644 19.3073 93.0101 22.1049 95.2809C24.1519 96.9423 26.7574 97.802 28.7253 99.5455C31.9829 102.432 32.8791 107.255 35.2323 110.816C39.6877 117.556 46.4337 118.979 54 119C54.0009 127.536 54.0061 138.268 65 138.956C83.666 140.124 102.462 132.935 121 131.17C137.836 129.566 154.567 133.173 171 136.261C179.732 137.901 197.831 143.57 204.297 134.891C208.036 129.872 207.216 122.718 205.985 117C203.112 103.65 195.546 93.4891 191 81C197.762 80.8559 203.822 78.6949 207.786 72.8295C210.017 69.5295 210.622 65.2264 213.418 62.2986C215.475 60.1456 218.451 59.2115 220.699 57.2809C226.31 52.4622 233.59 43.2884 235 36C229.449 37.1232 226.699 40.9951 223 45C224.762 38.9974 227.862 34.4581 228 28C220.234 28.5907 218.605 35.6505 216 42C214.685 37.5099 217.074 32.2719 215.383 28.1528C214.169 25.1949 211.019 25.3785 209.742 28.1528C207.687 32.6192 210.517 38.7782 206.363 42.534C203.137 45.4499 194.856 33.3663 192.752 40.4344C192.04 42.8241 194.428 45.2593 195.683 47C198.944 51.5251 205.272 57.4632 206.381 63C207.895 70.5534 196.582 80.6916 189.174 78.3032C185.983 77.2746 183.947 73.3593 181.826 71.0008C177.587 66.2856 172.657 61.8879 167 59C170.103 55.6201 173.015 52.2047 174.949 48C176.492 44.6471 177.034 40.3223 179.139 37.2994C182.819 32.0155 188.951 31.4094 190.606 24C193.546 10.8409 180.347 0.506561 168.001 4.70293C151.543 10.2965 156.44 35.2305 173 36z"/>
<path style="fill:#bfe592; stroke:none;" d="M180 4L181 5L180 4z"/>
<path style="fill:#dfffb4; stroke:none;" d="M182 5L183 6L182 5z"/>
<path style="fill:#83887d; stroke:none;" d="M183 5L184 6L183 5z"/>
<path style="fill:#41433f; stroke:none;" d="M163 6L164 7L163 6z"/>
<path style="fill:#a9d469; stroke:none;" d="M164 6L165 7L164 6z"/>
<path style="fill:#d0f1a0; stroke:none;" d="M185 7L186 8L185 7z"/>
<path style="fill:#ccf29b; stroke:none;" d="M186 8L187 9L186 8z"/>
<path style="fill:#86b529; stroke:none;" d="M170.667 9.33333C170.222 9.77779 171.278 9.72221 171.333 9.66667C171.778 9.22223 170.722 9.27774 170.667 9.33333z"/>
<path style="fill:#d9f7af; stroke:none;" d="M172.667 9.33333C172.222 9.77782 173.278 9.7222 173.333 9.66667C173.778 9.22221 172.722 9.27776 172.667 9.33333z"/>
<path style="fill:#5a773f; stroke:none;" d="M174 9L175 10L174 9z"/>
<path style="fill:#1c3607; stroke:none;" d="M175.667 9.33333C175.222 9.77779 176.278 9.72221 176.333 9.66667C176.778 9.22221 175.722 9.27776 175.667 9.33333z"/>
<path style="fill:#577a1c; stroke:none;" d="M177 9L178 10L177 9z"/>
<path style="fill:#e2fcb5; stroke:none;" d="M187 9L188 10L187 9z"/>
<path style="fill:#21211f; stroke:none;" d="M188 9L189 10L188 9z"/>
<path style="fill:#c1e083; stroke:none;" d="M160 10L161 11L160 10z"/>
<path style="fill:#ffffff; stroke:none;" d="M185 17C182.909 19.3059 181.034 22.3691 177.985 23.4969C168.344 27.0623 168.665 15.3006 171 10C168.831 11.0367 167.116 11.9592 165.738 14.0586C157.281 26.9403 178.707 38.1879 184.258 23.9969C185.12 21.7912 184.979 19.3204 185 17z"/>
<path style="fill:#aeacba; stroke:none;" d="M171 10L172 11L171 10z"/>
<path style="fill:#161616; stroke:none;" d="M172.214 10.7423C163.785 14.5449 170.813 26.5788 178.945 23.3958C188.254 19.7521 180.976 6.78929 172.214 10.7423z"/>
<path style="fill:#8bac55; stroke:none;" d="M180 10L181 11L180 10z"/>
<path style="fill:#61655e; stroke:none;" d="M188 10L189 11L188 10z"/>
<path style="fill:#63655e; stroke:none;" d="M67 11L68 12L67 11z"/>
<path style="fill:#e8ffc9; stroke:none;" d="M68 11C69.769 11.7789 71.0359 11.9124 73 12C71.231 11.2211 69.964 11.0876 68 11z"/>
<path style="fill:#20211f; stroke:none;" d="M75 11L76 12L75 11z"/>
<path style="fill:#21211f; stroke:none;" d="M80 11L81 12L80 11z"/>
<path style="fill:#ffffff; stroke:none;" d="M175 11L175 15L179 14L179 12L175 11z"/>
<path style="fill:#5e5e5e; stroke:none;" d="M178 11L179 12L178 11z"/>
<path style="fill:#a1ce57; stroke:none;" d="M188 11L189 12L188 11z"/>
<path style="fill:#80c804; stroke:none;" d="M99 59L101 59C102.788 57.5785 103.706 57.3026 106 57C102.419 49.3078 94.79 44.8947 90.7731 37.9105C89.0807 34.9679 90.2026 31.2229 89.814 28C89.0746 21.8666 85.5314 16.6201 79.9992 13.8395C63.5511 5.5724 46.1568 24.3354 55.9946 39.9961C60.5242 47.2068 68.9394 49.4244 77 47.6057C79.901 46.9511 82.8889 44.267 85.9599 44.9938C90.8968 46.1623 96.1818 55.025 99 59z"/>
<path style="fill:#b8dd7d; stroke:none;" d="M77 12L78 13L77 12z"/>
<path style="fill:#c1e794; stroke:none;" d="M166 12L167 13L166 12z"/>
<path style="fill:#e5ffb0; stroke:none;" d="M189 12L190 13L189 12z"/>
<path style="fill:#c4ccbb; stroke:none;" d="M62 13L63 14L62 13z"/>
<path style="fill:#a7d358; stroke:none;" d="M79 13L80 14L79 13z"/>
<path style="fill:#b1db6f; stroke:none;" d="M165 13L166 14L165 13z"/>
<path style="fill:#20211f; stroke:none;" d="M190 13L191 14L190 13z"/>
<path style="fill:#dbf9b9; stroke:none;" d="M61 14L62 15L61 14z"/>
<path style="fill:#defdad; stroke:none;" d="M158 14L159 15L158 14z"/>
<path style="fill:#c1c5b7; stroke:none;" d="M168 14L169 15L168 14z"/>
<path style="fill:#6d6d6d; stroke:none;" d="M178 14L179 15L178 14z"/>
<path style="fill:#e4ffa6; stroke:none;" d="M183 14L184 15L183 14z"/>
<path style="fill:#84887d; stroke:none;" d="M83 15L84 16L83 15z"/>
<path style="fill:#c4ea95; stroke:none;" d="M164 15L165 16L164 15z"/>
<path style="fill:#828d89; stroke:none;" d="M183 15L184 16L183 15z"/>
<path style="fill:#9abb52; stroke:none;" d="M190 15L191 16L190 15z"/>
<path style="fill:#eaffc4; stroke:none;" d="M157.333 16.6667C157.278 16.7222 157.222 17.7778 157.667 17.3333C157.722 17.2777 157.778 16.2223 157.333 16.6667z"/>
<path style="fill:#bae272; stroke:none;" d="M184 16L185 17L184 16z"/>
<path style="fill:#86887d; stroke:none;" d="M193 16L194 17L193 16z"/>
<path style="fill:#c6ee98; stroke:none;" d="M69 17C70.769 17.7789 72.0359 17.9124 74 18C72.231 17.2211 70.9641 17.0876 69 17z"/>
<path style="fill:#21211f; stroke:none;" d="M86 17L87 18L86 17z"/>
<path style="fill:#a2ce52; stroke:none;" d="M163 17L164 18L163 17z"/>
<path style="fill:#82b822; stroke:none;" d="M185 17L185 22C185.83 19.9695 185.83 19.0305 185 17z"/>
<path style="fill:#ffffff; stroke:none;" d="M61 24C63.1873 23.4411 65.716 22.3828 67.9969 22.9514C73.9259 24.4293 75.4214 31.7489 70.8519 35.5517C68.181 37.7744 65.1927 37.3263 62 37C66.9886 46.506 82.3009 42.1458 83.7608 32C85.6653 18.7648 67.4903 12.7787 61 24z"/>
<path style="fill:#b1cc7f; stroke:none;" d="M157 18L157 21C157.696 19.4463 157.696 19.5537 157 18z"/>
<path style="fill:#f5ffdf; stroke:none;" d="M163 18L163 22C163.71 20.2405 163.71 19.7595 163 18z"/>
<path style="fill:#9e9a97; stroke:none;" d="M183 18L184 19L183 18z"/>
<path style="fill:#afe172; stroke:none;" d="M64 19L65 20L64 19z"/>
<path style="fill:#dbf8b5; stroke:none;" d="M78 19L79 20L78 19z"/>
<path style="fill:#c9ccbb; stroke:none;" d="M87 19L88 20L87 19z"/>
<path style="fill:#83887d; stroke:none;" d="M191 19L192 20L191 19z"/>
<path style="fill:#21211f; stroke:none;" d="M51 20L52 21L51 20z"/>
<path style="fill:#edffb7; stroke:none;" d="M55 20L56 21L55 20z"/>
<path style="fill:#d2ecab; stroke:none;" d="M79 20L80 21L79 20z"/>
<path style="fill:#afe460; stroke:none;" d="M87 20L88 21L87 20z"/>
<path style="fill:#84887d; stroke:none;" d="M54 21L55 22L54 21z"/>
<path style="fill:#d9eead; stroke:none;" d="M157.333 21.6667C157.278 21.7222 157.222 22.7778 157.667 22.3333C157.722 22.2778 157.778 21.2222 157.333 21.6667z"/>
<path style="fill:#ccf08e; stroke:none;" d="M54 22L55 23L54 22z"/>
<path style="fill:#d8f9a2; stroke:none;" d="M61 22L62 23L61 22z"/>
<path style="fill:#161616; stroke:none;" d="M74 31L70 32L70 28L74 29C71.6377 21.0212 59.2176 20.3982 59.2176 30C59.2176 39.6148 71.6591 39.0923 74 31z"/>
<path style="fill:#909090; stroke:none;" d="M68 22L69 23L68 22z"/>
<path style="fill:#c4e77f; stroke:none;" d="M81 22L82 23L81 22z"/>
<path style="fill:#e6ffba; stroke:none;" d="M88 22L89 23L88 22z"/>
<path style="fill:#b3dc72; stroke:none;" d="M163 22L164 23L163 22z"/>
<path style="fill:#b9b9b9; stroke:none;" d="M170 22L171 23L170 22z"/>
<path style="fill:#737373; stroke:none;" d="M70 23L71 24L70 23z"/>
<path style="fill:#20211f; stroke:none;" d="M89 23L90 24L89 23z"/>
<path style="fill:#e2ffc0; stroke:none;" d="M53.3333 24.6667C53.2777 24.7223 53.2222 25.7777 53.6667 25.3333C53.7222 25.2778 53.7778 24.2222 53.3333 24.6667z"/>
<path style="fill:#f5fbd9; stroke:none;" d="M60 24L61 25L60 24z"/>
<path style="fill:#b4b4b4; stroke:none;" d="M175.667 24.3333C175.222 24.7778 176.278 24.7222 176.333 24.6667C176.778 24.2222 175.722 24.2778 175.667 24.3333z"/>
<path style="fill:#65655e; stroke:none;" d="M51 25L52 26L51 25z"/>
<path style="fill:#b2e65e; stroke:none;" d="M89 25L90 26L89 25z"/>
<path style="fill:#efffd4; stroke:none;" d="M123.667 25.3333C123.222 25.7778 124.278 25.7222 124.333 25.6667C124.778 25.2222 123.722 25.2778 123.667 25.3333z"/>
<path style="fill:#c0ee94; stroke:none;" d="M125 25L126 26L125 25z"/>
<path style="fill:#82be20; stroke:none;" d="M126 25C128.332 25.9845 130.457 25.9813 133 26C130.668 25.0155 128.543 25.0187 126 25z"/>
<path style="fill:#b8de87; stroke:none;" d="M133 25L134 26L133 25z"/>
<path style="fill:#ccdfa7; stroke:none;" d="M190 25L191 26L190 25z"/>
<path style="fill:#86ba2a; stroke:none;" d="M53.3333 26.6667C53.2778 26.7222 53.2222 27.7778 53.6667 27.3333C53.7222 27.2778 53.7778 26.2222 53.3333 26.6667z"/>
<path style="fill:#e6ffbb; stroke:none;" d="M59 26L60 27L59 26z"/>
<path style="fill:#c2e885; stroke:none;" d="M83 26L84 27L83 26z"/>
<path style="fill:#83887d; stroke:none;" d="M119 26L120 27L119 26z"/>
<path style="fill:#e2ffb7; stroke:none;" d="M138 26L139 27L138 26z"/>
<path style="fill:#e5ffb2; stroke:none;" d="M165 26L166 27L165 26z"/>
<path style="fill:#abd160; stroke:none;" d="M215 26L216 27L215 26z"/>
<path style="fill:#1f2020; stroke:none;" d="M141 27L142 28L141 27z"/>
<path style="fill:#a2ce5d; stroke:none;" d="M182 27L183 28L182 27z"/>
<path style="fill:#badf80; stroke:none;" d="M189 27L190 28L189 27z"/>
<path style="fill:#e4ffb7; stroke:none;" d="M209 27L210 28L209 27z"/>
<path style="fill:#aace6a; stroke:none;" d="M225 27L226 28L225 27z"/>
<path style="fill:#42433f; stroke:none;" d="M227 27L228 28L227 27z"/>
<path style="fill:#ffffff; stroke:none;" d="M70 28C70.2107 30.7386 70.3025 31.422 73 32L72 28L70 28z"/>
<path style="fill:#bcbcbc; stroke:none;" d="M72 28L73 29L72 28z"/>
<path style="fill:#84bd22; stroke:none;" d="M84 28L84 33C84.8299 30.9695 84.8299 30.0305 84 28z"/>
<path style="fill:#b4dd5b; stroke:none;" d="M142 28L143 29L142 28z"/>
<path style="fill:#ddfead; stroke:none;" d="M159 28L160 29L159 28z"/>
<path style="fill:#badf7f; stroke:none;" d="M167 28L168 29L167 28z"/>
<path style="fill:#e0fea4; stroke:none;" d="M222 28L223 29L222 28z"/>
<path style="fill:#7d7d7d; stroke:none;" d="M73.3333 29.6667C73.2778 29.7222 73.2222 30.7778 73.6667 30.3333C73.7223 30.2777 73.7778 29.2223 73.3333 29.6667z"/>
<path style="fill:#bcdd84; stroke:none;" d="M115 29L116 30L115 29z"/>
<path style="fill:#84887d; stroke:none;" d="M144 29L145 30L144 29z"/>
<path style="fill:#5e645f; stroke:none;" d="M159 29L160 30L159 29z"/>
<path style="fill:#bcd985; stroke:none;" d="M168 29L169 30L168 29z"/>
<path style="fill:#b9e268; stroke:none;" d="M228 29L228 32C228.696 30.4463 228.696 30.5537 228 29z"/>
<path style="fill:#85887d; stroke:none;" d="M52 30L53 31L52 30z"/>
<path style="fill:#c6ccbb; stroke:none;" d="M113 30L114 31L113 30z"/>
<path style="fill:#def6bc; stroke:none;" d="M145 30L146 31L145 30z"/>
<path style="fill:#41423f; stroke:none;" d="M146 30L147 31L146 30z"/>
<path style="fill:#d2f496; stroke:none;" d="M171 30L172 31L171 30z"/>
<path style="fill:#b2d85f; stroke:none;" d="M177 30L178 31L177 30z"/>
<path style="fill:#a7cd6a; stroke:none;" d="M187 30L188 31L187 30z"/>
<path style="fill:#21211f; stroke:none;" d="M216 30L217 31L216 30z"/>
<path style="fill:#c6ccbb; stroke:none;" d="M112 31L113 32L112 31z"/>
<path style="fill:#9ac84e; stroke:none;" d="M124 31L125 32L124 31z"/>
<path style="fill:#ffffff; stroke:none;" d="M136 67C132.659 65.582 129.101 65.7535 126.044 63.4275C124.48 62.2377 123.076 60.7472 122.18 58.9853C114.634 44.1497 143.362 37.2883 143.049 55C142.993 58.2007 141.141 61.0972 140 64C155.898 52.1869 142.286 24.5603 123 32.2863C110.493 37.2965 106.667 54.0556 117.185 63.1528C122.865 68.0653 128.987 68.3019 136 67z"/>
<path style="fill:#c2de91; stroke:none;" d="M133 31L134 32L133 31z"/>
<path style="fill:#bfe87e; stroke:none;" d="M146 31L147 32L146 31z"/>
<path style="fill:#d5fca1; stroke:none;" d="M122 32L123 33L122 32z"/>
<path style="fill:#ddfd9c; stroke:none;" d="M208 32L208 35C208.696 33.4463 208.696 33.5537 208 32z"/>
<path style="fill:#f5ffda; stroke:none;" d="M59 33L60 34L59 33z"/>
<path style="fill:#d5ea9b; stroke:none;" d="M138 33L139 34L138 33z"/>
<path style="fill:#d8edac; stroke:none;" d="M148 33L149 34L148 33z"/>
<path style="fill:#b5d981; stroke:none;" d="M184 33L185 34L184 33z"/>
<path style="fill:#aad762; stroke:none;" d="M215 33L216 34L215 33z"/>
<path style="fill:#3f413f; stroke:none;" d="M228 33L229 34L228 33z"/>
<path style="fill:#c4ea85; stroke:none;" d="M53 34L54 35L53 34z"/>
<path style="fill:#a8cb67; stroke:none;" d="M118 34L119 35L118 34z"/>
<path style="fill:#82887d; stroke:none;" d="M149 34L150 35L149 34z"/>
<path style="fill:#20211f; stroke:none;" d="M164 34L165 35L164 34z"/>
<path style="fill:#e7ffb9; stroke:none;" d="M183 34L184 35L183 34z"/>
<path style="fill:#b5d87a; stroke:none;" d="M227 34L228 35L227 34z"/>
<path style="fill:#f1ffd3; stroke:none;" d="M60 35C60.6836 36.58 60.8048 36.7772 62 38C61.3164 36.42 61.1952 36.2228 60 35z"/>
<path style="fill:#e7ffb8; stroke:none;" d="M89 35L90 36L89 35z"/>
<path style="fill:#d3f69a; stroke:none;" d="M117 35L118 36L117 35z"/>
<path style="fill:#bbe18e; stroke:none;" d="M141 35L142 36L141 35z"/>
<path style="fill:#21211f; stroke:none;" d="M165 35L166 36L165 35z"/>
<path style="fill:#c2ea89; stroke:none;" d="M167 35L168 36L167 35z"/>
<path style="fill:#92be33; stroke:none;" d="M179.667 35.3333C179.222 35.7777 180.278 35.7222 180.333 35.6667C180.778 35.2222 179.722 35.2778 179.667 35.3333z"/>
<path style="fill:#a1cf55; stroke:none;" d="M208.333 35.6667C208.278 35.7223 208.222 36.7777 208.667 36.3333C208.722 36.2778 208.778 35.2222 208.333 35.6667z"/>
<path style="fill:#1f201f; stroke:none;" d="M231 35L232 36L231 35z"/>
<path style="fill:#e4eed9; stroke:none;" d="M233.667 35.3333C233.222 35.7777 234.278 35.7223 234.333 35.6667C234.778 35.2222 233.722 35.2778 233.667 35.3333z"/>
<path style="fill:#464940; stroke:none;" d="M62 36L63 37L62 36z"/>
<path style="fill:#d8fba7; stroke:none;" d="M82 36L83 37L82 36z"/>
<path style="fill:#20211f; stroke:none;" d="M89 36L90 37L89 36z"/>
<path style="fill:#dff9b2; stroke:none;" d="M116 36L117 37L116 36z"/>
<path style="fill:#cbef8f; stroke:none;" d="M142 36L143 37L142 36z"/>
<path style="fill:#a0c953; stroke:none;" d="M150 36L151 37L150 36z"/>
<path style="fill:#89bc2f; stroke:none;" d="M170 36C171.248 36.6848 171.548 36.7488 173 37C171.752 36.3152 171.452 36.2512 170 36z"/>
<path style="fill:#b6e074; stroke:none;" d="M218 36L219 37L218 36z"/>
<path style="fill:#20211f; stroke:none;" d="M230 36L231 37L230 36z"/>
<path style="fill:#b3d275; stroke:none;" d="M231 36L232 37L231 36z"/>
<path style="fill:#ebffbc; stroke:none;" d="M235.333 36.6667C235.278 36.7223 235.222 37.7777 235.667 37.3333C235.722 37.2778 235.778 36.2222 235.333 36.6667z"/>
<path style="fill:#98be57; stroke:none;" d="M54 37L55 38L54 37z"/>
<path style="fill:#8c8c8c; stroke:none;" d="M68 37L69 38L68 37z"/>
<path style="fill:#e0ffb3; stroke:none;" d="M81 37L82 38L81 37z"/>
<path style="fill:#c0df99; stroke:none;" d="M143 37L144 38L143 37z"/>
<path style="fill:#d2f2a6; stroke:none;" d="M151 37L152 38L151 37z"/>
<path style="fill:#86887d; stroke:none;" d="M169 37L170 38L169 37z"/>
<path style="fill:#f2ffc2; stroke:none;" d="M172.333 37.6667C172.278 37.7223 172.222 38.7778 172.667 38.3333C172.722 38.2778 172.778 37.2222 172.333 37.6667z"/>
<path style="fill:#8ab83c; stroke:none;" d="M178.333 37.6667C178.278 37.7223 178.222 38.7777 178.667 38.3333C178.722 38.2778 178.778 37.2222 178.333 37.6667z"/>
<path style="fill:#f3ffda; stroke:none;" d="M194 37C195.506 37.683 196.315 37.8259 198 38C196.494 37.317 195.685 37.1741 194 37z"/>
<path style="fill:#88b830; stroke:none;" d="M208 37L208 40C208.696 38.4463 208.696 38.5537 208 37z"/>
<path style="fill:#a2aa9c; stroke:none;" d="M217 37L218 38L217 37z"/>
<path style="fill:#21211f; stroke:none;" d="M53 38L54 39L53 38z"/>
<path style="fill:#e0fbae; stroke:none;" d="M107 38L108 39L107 38z"/>
<path style="fill:#9ac844; stroke:none;" d="M114 38L115 39L114 38z"/>
<path style="fill:#92cd4f; stroke:none;" d="M144 38L145 39L144 38z"/>
<path style="fill:#b2d571; stroke:none;" d="M193 38L194 39L193 38z"/>
<path style="fill:#bade7e; stroke:none;" d="M198 38L199 39L198 38z"/>
<path style="fill:#65655e; stroke:none;" d="M215 38L216 39L215 38z"/>
<path style="fill:#e0ffb1; stroke:none;" d="M225 38L226 39L225 38z"/>
<path style="fill:#d1fb97; stroke:none;" d="M55 39L56 40L55 39z"/>
<path style="fill:#a8cf65; stroke:none;" d="M91 39L92 40L91 39z"/>
<path style="fill:#99c24a; stroke:none;" d="M113 39L114 40L113 39z"/>
<path style="fill:#63655e; stroke:none;" d="M200 39L201 40L200 39z"/>
<path style="fill:#ffffff; stroke:none;" d="M225 39C224.124 41.1041 223.954 41.7523 224 44C225.808 42.0363 226.204 41.4019 225 39z"/>
<path style="fill:#85887d; stroke:none;" d="M226.333 39.6667C226.278 39.7223 226.222 40.7778 226.667 40.3333C226.722 40.2778 226.778 39.2222 226.333 39.6667z"/>
<path style="fill:#e1f8b2; stroke:none;" d="M234 39L235 40L234 39z"/>
<path style="fill:#a4d05f; stroke:none;" d="M92 40L93 41L92 40z"/>
<path style="fill:#d0f399; stroke:none;" d="M106 40L107 41L106 40z"/>
<path style="fill:#b8e475; stroke:none;" d="M145 40L146 41L145 40z"/>
<path style="fill:#20211f; stroke:none;" d="M191 40L192 41L191 40z"/>
<path style="fill:#88887d; stroke:none;" d="M202 40L203 41L202 40z"/>
<path style="fill:#dafaae; stroke:none;" d="M216 40L217 41L216 40z"/>
<path style="fill:#d7f3a9; stroke:none;" d="M56 41L57 42L56 41z"/>
<path style="fill:#bae06f; stroke:none;" d="M65 41L66 42L65 41z"/>
<path style="fill:#b1de5d; stroke:none;" d="M77 41L78 42L77 41z"/>
<path style="fill:#aad25f; stroke:none;" d="M177 41L178 42L177 41z"/>
<path style="fill:#b0df75; stroke:none;" d="M215 41L216 42L215 41z"/>
<path style="fill:#c3e49d; stroke:none;" d="M233 41L234 42L233 41z"/>
<path style="fill:#aad663; stroke:none;" d="M68 42L69 43L68 42z"/>
<path style="fill:#f4ffda; stroke:none;" d="M69 42C70.7691 42.7789 72.0359 42.9124 74 43C72.231 42.2211 70.964 42.0876 69 42z"/>
<path style="fill:#f2ffd1; stroke:none;" d="M105.333 42.6667C105.278 42.7222 105.222 43.7778 105.667 43.3333C105.722 43.2778 105.778 42.2222 105.333 42.6667z"/>
<path style="fill:#f4ffd6; stroke:none;" d="M146.333 42.6667C146.278 42.7222 146.222 43.7778 146.667 43.3333C146.722 43.2778 146.778 42.2222 146.333 42.6667z"/>
<path style="fill:#b5db6a; stroke:none;" d="M153 42L154 43L153 42z"/>
<path style="fill:#c8e289; stroke:none;" d="M232 42L233 43L232 42z"/>
<path style="fill:#a4d055; stroke:none;" d="M58 43L59 44L58 43z"/>
<path style="fill:#ace064; stroke:none;" d="M84 43L85 44L84 43z"/>
<path style="fill:#d8ff99; stroke:none;" d="M85 43L86 44L85 43z"/>
<path style="fill:#dfdfdf; stroke:none;" d="M131.667 43.3333C131.222 43.7777 132.278 43.7222 132.333 43.6667C132.778 43.2222 131.722 43.2778 131.667 43.3333z"/>
<path style="fill:#60655e; stroke:none;" d="M177 43L178 44L177 43z"/>
<path style="fill:#d8f6b6; stroke:none;" d="M192 43L193 44L192 43z"/>
<path style="fill:#43433f; stroke:none;" d="M223 43L224 44L223 43z"/>
<path style="fill:#64655e; stroke:none;" d="M233 43L234 44L233 43z"/>
<path style="fill:#e3ffb2; stroke:none;" d="M59 44L60 45L59 44z"/>
<path style="fill:#bce36e; stroke:none;" d="M111 44L112 45L111 44z"/>
<path style="fill:#6d6d6d; stroke:none;" d="M127 44L128 45L127 44z"/>
<path style="fill:#161616; stroke:none;" d="M128.04 44.6528C114.796 49.0188 122.861 70.2763 135.996 65.2569C149.315 60.1673 141.716 40.1446 128.04 44.6528z"/>
<path style="fill:#a5c756; stroke:none;" d="M176 44L177 45L176 44z"/>
<path style="fill:#d6f899; stroke:none;" d="M205 44L206 45L205 44z"/>
<path style="fill:#f5ffc5; stroke:none;" d="M223 44L224 45L223 44z"/>
<path style="fill:#5e6363; stroke:none;" d="M231 44L232 45L231 44z"/>
<path style="fill:#20211f; stroke:none;" d="M98 45L99 46L98 45z"/>
<path style="fill:#cdcdcd; stroke:none;" d="M138 45L139 46L138 45z"/>
<path style="fill:#20211f; stroke:none;" d="M154 45L155 46L154 45z"/>
<path style="fill:#cdea98; stroke:none;" d="M169 45L170 46L169 45z"/>
<path style="fill:#c1ccbb; stroke:none;" d="M230 45L231 46L230 45z"/>
<path style="fill:#defcb4; stroke:none;" d="M80 46L81 47L80 46z"/>
<path style="fill:#21211f; stroke:none;" d="M83 46L84 47L83 46z"/>
<path style="fill:#99c14f; stroke:none;" d="M89 46L90 47L89 46z"/>
<path style="fill:#84887d; stroke:none;" d="M99 46L100 47L99 46z"/>
<path style="fill:#c5ccbb; stroke:none;" d="M104.333 46.6667C104.278 46.7222 104.222 47.7778 104.667 47.3333C104.722 47.2778 104.778 46.2222 104.333 46.6667z"/>
<path style="fill:#f2ffe3; stroke:none;" d="M147 46L147 53C148.059 50.4657 148.059 48.5343 147 46z"/>
<path style="fill:#eaffc0; stroke:none;" d="M154.333 46.6667C154.278 46.7223 154.222 47.7778 154.667 47.3333C154.722 47.2778 154.778 46.2222 154.333 46.6667z"/>
<path style="fill:#93ba4d; stroke:none;" d="M175 46L176 47L175 46z"/>
<path style="fill:#edffb2; stroke:none;" d="M64 47L65 48L64 47z"/>
<path style="fill:#c8eb87; stroke:none;" d="M78 47L79 48L78 47z"/>
<path style="fill:#21211f; stroke:none;" d="M79 47L80 48L79 47z"/>
<path style="fill:#cdf293; stroke:none;" d="M99 47L100 48L99 47z"/>
<path style="fill:#cbcbcb; stroke:none;" d="M123 47L124 48L123 47z"/>
<path style="fill:#676767; stroke:none;" d="M140 47L141 48L140 47z"/>
<path style="fill:#9fcf45; stroke:none;" d="M69 48C70.7691 48.7789 72.0359 48.9124 74 49C72.231 48.2211 70.9641 48.0876 69 48z"/>
<path style="fill:#88887d; stroke:none;" d="M75 48L76 49L75 48z"/>
<path style="fill:#cbeb80; stroke:none;" d="M100 48L101 49L100 48z"/>
<path style="fill:#ebffd7; stroke:none;" d="M104 48L104 54C104.951 51.7147 104.951 50.2853 104 48z"/>
<path style="fill:#d0d0d0; stroke:none;" d="M122 48L123 49L122 48z"/>
<path style="fill:#ffffff; stroke:none;" d="M135 53L139 52L138 48C135.476 49.4351 135.101 50.0955 135 53z"/>
<path style="fill:#606060; stroke:none;" d="M141 48L142 49L141 48z"/>
<path style="fill:#b6dc6f; stroke:none;" d="M154 48L154 52C154.71 50.2405 154.71 49.7595 154 48z"/>
<path style="fill:#abea5d; stroke:none;" d="M167 48L168 49L167 48z"/>
<path style="fill:#c5c5c5; stroke:none;" d="M138 49L139 50L138 49z"/>
<path style="fill:#87887d; stroke:none;" d="M155 49L156 50L155 49z"/>
<path style="fill:#e5fdb3; stroke:none;" d="M166 49L167 50L166 49z"/>
<path style="fill:#43433f; stroke:none;" d="M175 49L176 50L175 49z"/>
<path style="fill:#c1e490; stroke:none;" d="M197 49L198 50L197 49z"/>
<path style="fill:#b1d770; stroke:none;" d="M226 49L227 50L226 49z"/>
<path style="fill:#201f20; stroke:none;" d="M90 50L91 51L90 50z"/>
<path style="fill:#ddffa6; stroke:none;" d="M102 51L103 52L102 51z"/>
<path style="fill:#414141; stroke:none;" d="M121 51L122 52L121 51z"/>
<path style="fill:#d1d1d1; stroke:none;" d="M134 51L135 52L134 51z"/>
<path style="fill:#42433f; stroke:none;" d="M173 51L174 52L173 51z"/>
<path style="fill:#e4f9b8; stroke:none;" d="M156 52L157 53L156 52z"/>
<path style="fill:#d0e996; stroke:none;" d="M164 52L165 53L164 52z"/>
<path style="fill:#c5e37f; stroke:none;" d="M199 52L200 53L199 52z"/>
<path style="fill:#b9d984; stroke:none;" d="M163 53L164 54L163 53z"/>
<path style="fill:#bee97e; stroke:none;" d="M171 53L172 54L171 53z"/>
<path style="fill:#93b94a; stroke:none;" d="M200 53L201 54L200 53z"/>
<path style="fill:#add55a; stroke:none;" d="M95 54L96 55L95 54z"/>
<path style="fill:#c6f782; stroke:none;" d="M104 54L105 55L104 54z"/>
<path style="fill:#b7de71; stroke:none;" d="M111 54L112 55L111 54z"/>
<path style="fill:#e2e3dd; stroke:none;" d="M143.333 54.6667C143.278 54.7223 143.222 55.7777 143.667 55.3333C143.722 55.2778 143.778 54.2222 143.333 54.6667z"/>
<path style="fill:#b2d871; stroke:none;" d="M160 54L161 55L160 54z"/>
<path style="fill:#c1ccbb; stroke:none;" d="M162 54L163 55L162 54z"/>
<path style="fill:#1f211f; stroke:none;" d="M200 54L201 55L200 54z"/>
<path style="fill:#9bc45c; stroke:none;" d="M223 54L224 55L223 54z"/>
<path style="fill:#9fcf55; stroke:none;" d="M96 55L97 56L96 55z"/>
<path style="fill:#9fcb4f; stroke:none;" d="M222 55L223 56L222 55z"/>
<path style="fill:#20211f; stroke:none;" d="M223 55L224 56L223 55z"/>
<path style="fill:#dcfb9d; stroke:none;" d="M146 56L147 57L146 56z"/>
<path style="fill:#d6fe9e; stroke:none;" d="M97.3333 57.6667C97.2778 57.7222 97.2222 58.7778 97.6667 58.3333C97.7222 58.2778 97.7778 57.2222 97.3333 57.6667z"/>
<path style="fill:#aed268; stroke:none;" d="M220 57L221 58L220 57z"/>
<path style="fill:#cccccc; stroke:none;" d="M121 58L122 59L121 58z"/>
<path style="fill:#aad167; stroke:none;" d="M145 58L146 59L145 58z"/>
<path style="fill:#d5ff79; stroke:none;" d="M167 58L168 59L167 58z"/>
<path style="fill:#21211f; stroke:none;" d="M169 58L170 59L169 58z"/>
<path style="fill:#65655e; stroke:none;" d="M203 58L204 59L203 58z"/>
<path style="fill:#a6d660; stroke:none;" d="M204 58L205 59L204 58z"/>
<path style="fill:#a5cc62; stroke:none;" d="M219 58L220 59L219 58z"/>
<path style="fill:#cbee90; stroke:none;" d="M96 59L97 60L96 59z"/>
<path style="fill:#a2ce53; stroke:none;" d="M113 59L114 60L113 59z"/>
<path style="fill:#5d5d5f; stroke:none;" d="M142 59L143 60L142 59z"/>
<path style="fill:#e6fcb4; stroke:none;" d="M218 59L219 60L218 59z"/>
<path style="fill:#9dc650; stroke:none;" d="M114 60L115 61L114 60z"/>
<path style="fill:#97c352; stroke:none;" d="M214 60L215 61L214 60z"/>
<path style="fill:#ceefa0; stroke:none;" d="M93 61L94 62L93 61z"/>
<path style="fill:#cce194; stroke:none;" d="M143 61L144 62L143 61z"/>
<path style="fill:#85bc23; stroke:none;" d="M206 61L206 67C206.951 64.7148 206.951 63.2853 206 61z"/>
<path style="fill:#c4ccbb; stroke:none;" d="M213 61L214 62L213 61z"/>
<path style="fill:#80887d; stroke:none;" d="M29 62L30 63L29 62z"/>
<path style="fill:#86887d; stroke:none;" d="M31 62L32 63L31 62z"/>
<path style="fill:#dfffaf; stroke:none;" d="M116 62L117 63L116 62z"/>
<path style="fill:#d5f7a1; stroke:none;" d="M142 62L143 63L142 62z"/>
<path style="fill:#e0ffb2; stroke:none;" d="M172 62L173 63L172 62z"/>
<path style="fill:#63655e; stroke:none;" d="M27 63L28 64L27 63z"/>
<path style="fill:#abd373; stroke:none;" d="M28 63L29 64L28 63z"/>
<path style="fill:#d0f492; stroke:none;" d="M117 63L118 64L117 63z"/>
<path style="fill:#cccec1; stroke:none;" d="M139 63L140 64L139 63z"/>
<path style="fill:#c6e891; stroke:none;" d="M141 63L142 64L141 63z"/>
<path style="fill:#c5e98f; stroke:none;" d="M173 63L174 64L173 63z"/>
<path style="fill:#3f413f; stroke:none;" d="M26 64L27 65L26 64z"/>
<path style="fill:#c1df85; stroke:none;" d="M89 64L90 65L89 64z"/>
<path style="fill:#fbffe6; stroke:none;" d="M138.667 64.3333C138.222 64.7777 139.278 64.7222 139.333 64.6667C139.778 64.2222 138.722 64.2778 138.667 64.3333z"/>
<path style="fill:#e2ffb9; stroke:none;" d="M211 64L212 65L211 64z"/>
<path style="fill:#a8d16b; stroke:none;" d="M16 65L17 66L16 65z"/>
<path style="fill:#b2d98a; stroke:none;" d="M18 65L19 66L18 65z"/>
<path style="fill:#82887d; stroke:none;" d="M26 65L27 66L26 65z"/>
<path style="fill:#bbbbbb; stroke:none;" d="M128 65L129 66L128 65z"/>
<path style="fill:#f5ffed; stroke:none;" d="M136.667 65.3333C136.222 65.7777 137.278 65.7222 137.333 65.6667C137.778 65.2222 136.722 65.2778 136.667 65.3333z"/>
<path style="fill:#d3f2a6; stroke:none;" d="M138 65L139 66L138 65z"/>
<path style="fill:#b5d58a; stroke:none;" d="M14 66L14 70C14.7102 68.2405 14.7102 67.7595 14 66z"/>
<path style="fill:#f0ffd6; stroke:none;" d="M26 66L26 70C26.7102 68.2405 26.7102 67.7595 26 66z"/>
<path style="fill:#b4db66; stroke:none;" d="M33 66L34 67L33 66z"/>
<path style="fill:#96b152; stroke:none;" d="M87 66L88 67L87 66z"/>
<path style="fill:#d2f1ab; stroke:none;" d="M122 66L123 67L122 66z"/>
<path style="fill:#65655e; stroke:none;" d="M34 67L35 68L34 67z"/>
<path style="fill:#85be33; stroke:none;" d="M133 67C134.248 67.6848 134.548 67.7488 136 68C134.752 67.3152 134.452 67.2512 133 67z"/>
<path style="fill:#c2ccbb; stroke:none;" d="M210.333 67.6667C210.278 67.7223 210.222 68.7778 210.667 68.3333C210.722 68.2778 210.778 67.2222 210.333 67.6667z"/>
<path style="fill:#a8cd64; stroke:none;" d="M21 68L22 69L21 68z"/>
<path style="fill:#aed465; stroke:none;" d="M205 68L206 69L205 68z"/>
<path style="fill:#b8d98a; stroke:none;" d="M209 69L210 70L209 69z"/>
<path style="fill:#aede70; stroke:none;" d="M22 70L23 71L22 70z"/>
<path style="fill:#afdf72; stroke:none;" d="M204 70L205 71L204 70z"/>
<path style="fill:#84887d; stroke:none;" d="M209 70L210 71L209 70z"/>
<path style="fill:#ddf7b0; stroke:none;" d="M34.3333 71.6667C34.2778 71.7222 34.2222 72.7778 34.6667 72.3333C34.7222 72.2778 34.7778 71.2222 34.3333 71.6667z"/>
<path style="fill:#e1ffb1; stroke:none;" d="M81 71L82 72L81 71z"/>
<path style="fill:#40413f; stroke:none;" d="M202 71L203 72L202 71z"/>
<path style="fill:#43433f; stroke:none;" d="M10 72L11 73L10 72z"/>
<path style="fill:#9ec85a; stroke:none;" d="M23 72L24 73L23 72z"/>
<path style="fill:#f2ffcf; stroke:none;" d="M27.3333 72.6667C27.2778 72.7222 27.2222 73.7778 27.6667 73.3333C27.7222 73.2778 27.7778 72.2222 27.3333 72.6667z"/>
<path style="fill:#20211f; stroke:none;" d="M80 72L81 73L80 72z"/>
<path style="fill:#88887d; stroke:none;" d="M200 72L201 73L200 72z"/>
<path style="fill:#a2c76a; stroke:none;" d="M203 72L204 73L203 72z"/>
<path style="fill:#e2ffbc; stroke:none;" d="M8 73C9.24834 73.6848 9.54843 73.7488 11 74C9.75165 73.3152 9.45158 73.2512 8 73z"/>
<path style="fill:#c3de91; stroke:none;" d="M34 73L34 76C34.6961 74.4463 34.6961 74.5537 34 73z"/>
<path style="fill:#e4ffbe; stroke:none;" d="M7.33333 74.6667C7.27779 74.7222 7.22222 75.7778 7.66667 75.3333C7.72225 75.2778 7.77776 74.2222 7.33333 74.6667z"/>
<path style="fill:#65655e; stroke:none;" d="M14 74L15 75L14 74z"/>
<path style="fill:#20211f; stroke:none;" d="M27 74L28 75L27 74z"/>
<path style="fill:#cfef9a; stroke:none;" d="M184 74L185 75L184 74z"/>
<path style="fill:#7d8383; stroke:none;" d="M200 74L201 75L200 74z"/>
<path style="fill:#d9fda3; stroke:none;" d="M201 74L202 75L201 74z"/>
<path style="fill:#62655e; stroke:none;" d="M16 75L17 76L16 75z"/>
<path style="fill:#cbea8d; stroke:none;" d="M46.6667 75.3333C46.2222 75.7778 47.2778 75.7222 47.3333 75.6667C47.7777 75.2223 46.7222 75.2778 46.6667 75.3333z"/>
<path style="fill:#b7e87b; stroke:none;" d="M185 75L186 76L185 75z"/>
<path style="fill:#98c254; stroke:none;" d="M205 75L206 76L205 75z"/>
<path style="fill:#afd463; stroke:none;" d="M17 76L18 77L17 76z"/>
<path style="fill:#aad369; stroke:none;" d="M49 76L50 77L49 76z"/>
<path style="fill:#80887d; stroke:none;" d="M50 76L51 77L50 76z"/>
<path style="fill:#21211f; stroke:none;" d="M188 76L189 77L188 76z"/>
<path style="fill:#bae780; stroke:none;" d="M198 76L199 77L198 76z"/>
<path style="fill:#b1d059; stroke:none;" d="M204 76L205 77L204 76z"/>
<path style="fill:#bfe27e; stroke:none;" d="M42 77L43 78L42 77z"/>
<path style="fill:#83887d; stroke:none;" d="M75 77L76 78L75 77z"/>
<path style="fill:#f5ffd1; stroke:none;" d="M193.667 77.3333C193.222 77.7777 194.278 77.7222 194.333 77.6667C194.778 77.2222 193.722 77.2778 193.667 77.3333z"/>
<path style="fill:#b2da81; stroke:none;" d="M195 77L196 78L195 77z"/>
<path style="fill:#cae890; stroke:none;" d="M203 77L204 78L203 77z"/>
<path style="fill:#c6e595; stroke:none;" d="M15 78L16 79L15 78z"/>
<path style="fill:#aad56c; stroke:none;" d="M75 78L76 79L75 78z"/>
<path style="fill:#8dbb25; stroke:none;" d="M187 78C189.052 78.8742 190.747 78.9528 193 79C190.948 78.1257 189.253 78.0472 187 78z"/>
<path style="fill:#ddfda8; stroke:none;" d="M9 79L10 80L9 79z"/>
<path style="fill:#65655e; stroke:none;" d="M17 79L18 80L17 79z"/>
<path style="fill:#62655e; stroke:none;" d="M35 79L36 80L35 79z"/>
<path style="fill:#c4eb7e; stroke:none;" d="M41 79L42 80L41 79z"/>
<path style="fill:#cef396; stroke:none;" d="M74 79L75 80L74 79z"/>
<path style="fill:#c9ed83; stroke:none;" d="M200 79L201 80L200 79z"/>
<path style="fill:#20211f; stroke:none;" d="M201 79L202 80L201 79z"/>
<path style="fill:#f5ffdd; stroke:none;" d="M19 80C19.0313 81.8318 18.9205 81.5587 20 83C19.7488 81.5484 19.6848 81.2483 19 80z"/>
<path style="fill:#dbf6af; stroke:none;" d="M35 80L36 81L35 80z"/>
<path style="fill:#82b826; stroke:none;" d="M145 80C146.506 80.683 147.315 80.8259 149 81C147.494 80.317 146.685 80.1741 145 80z"/>
<path style="fill:#c7e08f; stroke:none;" d="M149 80L150 81L149 80z"/>
<path style="fill:#959188; stroke:none;" d="M150 80L150 84C150.71 82.2405 150.71 81.7595 150 80z"/>
<path style="fill:#000000; stroke:none;" d="M151 80C149.608 84.7829 145.728 86.6227 144 81C143.104 82.9147 142.703 85.7086 140.683 86.8071C135.019 89.8878 123.063 87.6617 122 81C118.838 81.9178 115.135 82.6367 113.009 85.3943C105.594 95.0134 117.613 116.189 127 120C128.928 117.209 131.113 113.153 135.015 113.145C139.668 113.136 142.239 118.854 146.985 115.623C153.994 110.852 158.242 99.9095 160.24 92C161.005 88.9709 161.891 84.0998 159.397 81.6034C157.325 79.5299 153.664 80.0094 151 80z"/>
<path style="fill:#c4ccbb; stroke:none;" d="M197.667 80.3333C197.222 80.7777 198.278 80.7222 198.333 80.6667C198.778 80.2222 197.722 80.2778 197.667 80.3333z"/>
<path style="fill:#4a6f22; stroke:none;" d="M120 81L121 82L120 81z"/>
<path style="fill:#fffae2; stroke:none;" d="M122 81L122 86L143 87L143 81C135.871 82.6972 129.18 81.0594 122 81z"/>
<path style="fill:#a9cd69; stroke:none;" d="M129 81C130.248 81.6848 130.548 81.7488 132 82C130.752 81.3152 130.452 81.2512 129 81z"/>
<path style="fill:#82aa37; stroke:none;" d="M132 81C134.332 81.9845 136.457 81.9813 139 82C136.668 81.0155 134.543 81.0187 132 81z"/>
<path style="fill:#b0cc78; stroke:none;" d="M139 81C140.248 81.6848 140.548 81.7488 142 82C140.752 81.3152 140.452 81.2512 139 81z"/>
<path style="fill:#fefbda; stroke:none;" d="M144 81L144 85L150 85L150 81L144 81z"/>
<path style="fill:#84b538; stroke:none;" d="M191.667 81.3333C191.222 81.7777 192.278 81.7223 192.333 81.6667C192.778 81.2222 191.722 81.2778 191.667 81.3333z"/>
<path style="fill:#b9e181; stroke:none;" d="M193 81L194 82L193 81z"/>
<path style="fill:#f3ffd7; stroke:none;" d="M194 81C195.248 81.6848 195.548 81.7488 197 82C195.752 81.3152 195.452 81.2512 194 81z"/>
<path style="fill:#add562; stroke:none;" d="M12 82L13 83L12 82z"/>
<path style="fill:#b4dc69; stroke:none;" d="M37 82L38 83L37 82z"/>
<path style="fill:#bbe278; stroke:none;" d="M39 82L40 83L39 82z"/>
<path style="fill:#d0f49d; stroke:none;" d="M48 82L49 83L48 82z"/>
<path style="fill:#436300; stroke:none;" d="M116 82L117 83L116 82z"/>
<path style="fill:#f1ffc6; stroke:none;" d="M191.333 82.6667C191.278 82.7223 191.222 83.7778 191.667 83.3333C191.722 83.2778 191.778 82.2222 191.333 82.6667z"/>
<path style="fill:#21211f; stroke:none;" d="M192 82L193 83L192 82z"/>
<path style="fill:#84887d; stroke:none;" d="M12 83L13 84L12 83z"/>
<path style="fill:#d6fea8; stroke:none;" d="M47 83L48 84L47 83z"/>
<path style="fill:#c0e39f; stroke:none;" d="M71 83L72 84L71 83z"/>
<path style="fill:#c1ccbb; stroke:none;" d="M13 84L14 85L13 84z"/>
<path style="fill:#b1d567; stroke:none;" d="M46 84L47 85L46 84z"/>
<path style="fill:#cbe99f; stroke:none;" d="M70 84L71 85L70 84z"/>
<path style="fill:#83887d; stroke:none;" d="M14 85L15 86L14 85z"/>
<path style="fill:#959690; stroke:none;" d="M145 85C146.506 85.683 147.315 85.8259 149 86C147.494 85.317 146.685 85.1741 145 85z"/>
<path style="fill:#dcffab; stroke:none;" d="M45 86L46 87L45 86z"/>
<path style="fill:#9a9987; stroke:none;" d="M123 86C124.506 86.683 125.315 86.8259 127 87C125.494 86.317 124.685 86.1741 123 86z"/>
<path style="fill:#68665a; stroke:none;" d="M127 86L128 87L127 86z"/>
<path style="fill:#615f53; stroke:none;" d="M136 86L137 87L136 86z"/>
<path style="fill:#c0e885; stroke:none;" d="M16 87L17 88L16 87z"/>
<path style="fill:#82887d; stroke:none;" d="M45 87L46 88L45 87z"/>
<path style="fill:#c9e996; stroke:none;" d="M68 87L69 88L68 87z"/>
<path style="fill:#486b0f; stroke:none;" d="M111 87L112 88L111 87z"/>
<path style="fill:#d4d1c0; stroke:none;" d="M130 87C131.769 87.7789 133.036 87.9124 135 88C133.231 87.2211 131.964 87.0876 130 87z"/>
<path style="fill:#d4d0c5; stroke:none;" d="M138 87C139.506 87.683 140.315 87.8259 142 88C140.494 87.317 139.685 87.1741 138 87z"/>
<path style="fill:#ccccbb; stroke:none;" d="M14 88L15 89L14 88z"/>
<path style="fill:#ceeba9; stroke:none;" d="M44 88L45 89L44 88z"/>
<path style="fill:#b7e382; stroke:none;" d="M194 88L195 89L194 88z"/>
<path style="fill:#c5ea8a; stroke:none;" d="M17 89L18 90L17 89z"/>
<path style="fill:#20211f; stroke:none;" d="M44 89L45 90L44 89z"/>
<path style="fill:#e5ffaf; stroke:none;" d="M66 90L67 91L66 90z"/>
<path style="fill:#b2dd72; stroke:none;" d="M195 90L196 91L195 90z"/>
<path style="fill:#34551c; stroke:none;" d="M160 91L161 92L160 91z"/>
<path style="fill:#aed36c; stroke:none;" d="M41 92L42 93L41 92z"/>
<path style="fill:#cdf19a; stroke:none;" d="M40 93L41 94L40 93z"/>
<path style="fill:#c5ccbb; stroke:none;" d="M20 94L21 95L20 94z"/>
<path style="fill:#4d6823; stroke:none;" d="M159 94L160 95L159 94z"/>
<path style="fill:#9ac752; stroke:none;" d="M22 95L23 96L22 95z"/>
<path style="fill:#a9d26a; stroke:none;" d="M63 95L64 96L63 95z"/>
<path style="fill:#d5f4a6; stroke:none;" d="M198 95L199 96L198 95z"/>
<path style="fill:#40423f; stroke:none;" d="M22 96L23 97L22 96z"/>
<path style="fill:#d4f2a8; stroke:none;" d="M23 96L24 97L23 96z"/>
<path style="fill:#bbe57f; stroke:none;" d="M37 97L38 98L37 97z"/>
<path style="fill:#d9f8aa; stroke:none;" d="M62 97L63 98L62 97z"/>
<path style="fill:#385501; stroke:none;" d="M111 97L112 98L111 97z"/>
<path style="fill:#2b4a0e; stroke:none;" d="M158 97L159 98L158 97z"/>
<path style="fill:#d2f9aa; stroke:none;" d="M199 97L200 98L199 97z"/>
<path style="fill:#d2f5a3; stroke:none;" d="M28 98L29 99L28 98z"/>
<path style="fill:#99cd44; stroke:none;" d="M36 98L36 102C36.7102 100.241 36.7102 99.7595 36 98z"/>
<path style="fill:#a7d058; stroke:none;" d="M61 99L62 100L61 99z"/>
<path style="fill:#c6ccbb; stroke:none;" d="M201 101L202 102L201 101z"/>
<path style="fill:#88887d; stroke:none;" d="M28 102L29 103L28 102z"/>
<path style="fill:#e7ffb1; stroke:none;" d="M31 103L32 104L31 103z"/>
<path style="fill:#d4df9a; stroke:none;" d="M59 103L60 104L59 103z"/>
<path style="fill:#608329; stroke:none;" d="M113 103L114 104L113 103z"/>
<path style="fill:#ecffcb; stroke:none;" d="M37.3333 104.667C37.2778 104.722 37.2222 105.778 37.6667 105.333C37.7222 105.278 37.7778 104.222 37.3333 104.667z"/>
<path style="fill:#61655e; stroke:none;" d="M58 104L59 105L58 104z"/>
<path style="fill:#c5ccbb; stroke:none;" d="M32.3333 105.667C32.2778 105.722 32.2222 106.778 32.6667 106.333C32.7222 106.278 32.7778 105.222 32.3333 105.667z"/>
<path style="fill:#c9e6a4; stroke:none;" d="M58 105L59 106L58 105z"/>
<path style="fill:#355408; stroke:none;" d="M154 105L155 106L154 105z"/>
<path style="fill:#add66e; stroke:none;" d="M37 106L38 107L37 106z"/>
<path style="fill:#87887d; stroke:none;" d="M39 106L40 107L39 106z"/>
<path style="fill:#57801a; stroke:none;" d="M115 107L116 108L115 107z"/>
<path style="fill:#c7ec83; stroke:none;" d="M203 107L204 108L203 107z"/>
<path style="fill:#e2ffb8; stroke:none;" d="M33 108L34 109L33 108z"/>
<path style="fill:#e8ffb9; stroke:none;" d="M57 108L58 109L57 108z"/>
<path style="fill:#98c449; stroke:none;" d="M34 109L35 110L34 109z"/>
<path style="fill:#83887d; stroke:none;" d="M56 109L57 110L56 109z"/>
<path style="fill:#a5d857; stroke:none;" d="M39 110L40 111L39 110z"/>
<path style="fill:#355605; stroke:none;" d="M117 110L118 111L117 110z"/>
<path style="fill:#bee491; stroke:none;" d="M35 111L36 112L35 111z"/>
<path style="fill:#c7e782; stroke:none;" d="M40 111L41 112L40 111z"/>
<path style="fill:#b1d861; stroke:none;" d="M204 111L205 112L204 111z"/>
<path style="fill:#b4d57a; stroke:none;" d="M41 112L42 113L41 112z"/>
<path style="fill:#5a8124; stroke:none;" d="M118 112L119 113L118 112z"/>
<path style="fill:#7e4645; stroke:none;" d="M134.667 112.333C134.222 112.778 135.278 112.722 135.333 112.667C135.778 112.222 134.722 112.278 134.667 112.333z"/>
<path style="fill:#b9dd7b; stroke:none;" d="M37 113L38 114L37 113z"/>
<path style="fill:#f0ffc8; stroke:none;" d="M55.3333 113.667C55.2778 113.722 55.2222 114.778 55.6667 114.333C55.7222 114.278 55.7778 113.222 55.3333 113.667z"/>
<path style="fill:#2d5100; stroke:none;" d="M119 113L120 114L119 113z"/>
<path style="fill:#fe918e; stroke:none;" d="M128 121C133.19 120.986 137.976 120.3 143 119C138.889 110.471 129.757 111.952 128 121z"/>
<path style="fill:#abd267; stroke:none;" d="M44 114L45 115L44 114z"/>
<path style="fill:#a26c6a; stroke:none;" d="M130 114L131 115L130 114z"/>
<path style="fill:#d6f5b1; stroke:none;" d="M205 114L206 115L205 114z"/>
<path style="fill:#aad36d; stroke:none;" d="M38.6667 115.333C38.2222 115.778 39.2778 115.722 39.3333 115.667C39.7778 115.222 38.7222 115.278 38.6667 115.333z"/>
<path style="fill:#a6d263; stroke:none;" d="M55 115L56 116L55 115z"/>
<path style="fill:#46670c; stroke:none;" d="M120 115L121 116L120 115z"/>
<path style="fill:#c9ed96; stroke:none;" d="M42 117L43 118L42 117z"/>
<path style="fill:#97675d; stroke:none;" d="M128 117L129 118L128 117z"/>
<path style="fill:#daf8b0; stroke:none;" d="M45 118L46 119L45 118z"/>
<path style="fill:#c1e67c; stroke:none;" d="M206.333 118.667C206.278 118.722 206.222 119.778 206.667 119.333C206.722 119.278 206.778 118.222 206.333 118.667z"/>
<path style="fill:#eeffc1; stroke:none;" d="M48 119C49.2484 119.685 49.5484 119.749 51 120C49.7516 119.315 49.4516 119.251 48 119z"/>
<path style="fill:#a7ca66; stroke:none;" d="M51 119C52.2483 119.685 52.5484 119.749 54 120C52.7516 119.315 52.4516 119.251 51 119z"/>
<path style="fill:#332e00; stroke:none;" d="M127.333 119.667C127.278 119.722 127.222 120.778 127.667 120.333C127.722 120.278 127.778 119.222 127.333 119.667z"/>
<path style="fill:#e3a16f; stroke:none;" d="M136.667 120.333C136.222 120.778 137.278 120.722 137.333 120.667C137.778 120.222 136.722 120.278 136.667 120.333z"/>
<path style="fill:#a9a43e; stroke:none;" d="M128 121C129.248 121.685 129.548 121.749 131 122C129.752 121.315 129.452 121.251 128 121z"/>
<path style="fill:#ce9d72; stroke:none;" d="M131 121C132.248 121.685 132.548 121.749 134 122C132.752 121.315 132.452 121.251 131 121z"/>
<path style="fill:#9c953b; stroke:none;" d="M134.667 121.333C134.222 121.778 135.278 121.722 135.333 121.667C135.778 121.222 134.722 121.278 134.667 121.333z"/>
<path style="fill:#21211f; stroke:none;" d="M53 124L54 125L53 124z"/>
<path style="fill:#64655e; stroke:none;" d="M53.3333 125.667C53.2778 125.722 53.2222 126.778 53.6667 126.333C53.7222 126.278 53.7778 125.222 53.3333 125.667z"/>
<path style="fill:#65655e; stroke:none;" d="M51 127L52 128L51 127z"/>
<path style="fill:#21211f; stroke:none;" d="M51 128L52 129L51 128z"/>
<path style="fill:#83ae42; stroke:none;" d="M54.3333 129.667C54.2778 129.722 54.2222 130.778 54.6667 130.333C54.7222 130.278 54.7778 129.222 54.3333 129.667z"/>
<path style="fill:#b4d771; stroke:none;" d="M206 130L207 131L206 130z"/>
<path style="fill:#f8ffd6; stroke:none;" d="M54 131L54 134C54.6961 132.446 54.6961 132.554 54 131z"/>
<path style="fill:#d3ff95; stroke:none;" d="M118.667 131.333C118.222 131.778 119.278 131.722 119.333 131.667C119.778 131.222 118.722 131.278 118.667 131.333z"/>
<path style="fill:#f4ffd9; stroke:none;" d="M120 131C121.506 131.683 122.315 131.826 124 132C122.494 131.317 121.685 131.174 120 131z"/>
<path style="fill:#c2ccbb; stroke:none;" d="M124 131L125 132L124 131z"/>
<path style="fill:#62655e; stroke:none;" d="M136 131L137 132L136 131z"/>
<path style="fill:#c7ccbb; stroke:none;" d="M137 131L138 132L137 131z"/>
<path style="fill:#e3ffb6; stroke:none;" d="M139 131C140.248 131.685 140.548 131.749 142 132C140.752 131.315 140.452 131.251 139 131z"/>
<path style="fill:#bde573; stroke:none;" d="M142 131L143 132L142 131z"/>
<path style="fill:#a9d171; stroke:none;" d="M110 132L111 133L110 132z"/>
<path style="fill:#ebffc8; stroke:none;" d="M111 132C112.248 132.685 112.548 132.749 114 133C112.752 132.315 112.452 132.251 111 132z"/>
<path style="fill:#21211f; stroke:none;" d="M145 132L146 133L145 132z"/>
<path style="fill:#add467; stroke:none;" d="M149.667 132.333C149.222 132.778 150.278 132.722 150.333 132.667C150.778 132.222 149.722 132.278 149.667 132.333z"/>
<path style="fill:#85887d; stroke:none;" d="M206 132L207 133L206 132z"/>
<path style="fill:#8cb92b; stroke:none;" d="M102 133C103.248 133.685 103.548 133.749 105 134C103.752 133.315 103.452 133.251 102 133z"/>
<path style="fill:#d6f5a5; stroke:none;" d="M105 133L106 134L105 133z"/>
<path style="fill:#a1aa9c; stroke:none;" d="M153 133L154 134L153 133z"/>
<path style="fill:#c3e587; stroke:none;" d="M155 133L156 134L155 133z"/>
<path style="fill:#b2d676; stroke:none;" d="M205 133L206 134L205 133z"/>
<path style="fill:#bce16d; stroke:none;" d="M98 134L99 135L98 134z"/>
<path style="fill:#e7ffb7; stroke:none;" d="M161 134L162 135L161 134z"/>
<path style="fill:#add952; stroke:none;" d="M162 134L163 135L162 134z"/>
<path style="fill:#a5cc62; stroke:none;" d="M56 135L57 136L56 135z"/>
<path style="fill:#97c54b; stroke:none;" d="M93 135L94 136L93 135z"/>
<path style="fill:#d1f4a4; stroke:none;" d="M94 135L95 136L94 135z"/>
<path style="fill:#65655e; stroke:none;" d="M107 135L108 136L107 135z"/>
<path style="fill:#c6ccbb; stroke:none;" d="M164 135L165 136L164 135z"/>
<path style="fill:#cce8ab; stroke:none;" d="M166 135L167 136L166 135z"/>
<path style="fill:#bfe379; stroke:none;" d="M57 136L58 137L57 136z"/>
<path style="fill:#21211f; stroke:none;" d="M90 136L91 137L90 136z"/>
<path style="fill:#b2d473; stroke:none;" d="M172 136L173 137L172 136z"/>
<path style="fill:#d2f3a2; stroke:none;" d="M203 136L204 137L203 136z"/>
<path style="fill:#b7dc7d; stroke:none;" d="M58 137L59 138L58 137z"/>
<path style="fill:#add46a; stroke:none;" d="M83 137L84 138L83 137z"/>
<path style="fill:#f4ffd8; stroke:none;" d="M84.6667 137.333C84.2222 137.778 85.2778 137.722 85.3333 137.667C85.7778 137.222 84.7222 137.278 84.6667 137.333z"/>
<path style="fill:#c5ccbb; stroke:none;" d="M174 137L175 138L174 137z"/>
<path style="fill:#d1f48c; stroke:none;" d="M176 137L177 138L176 137z"/>
<path style="fill:#ccf386; stroke:none;" d="M60 138L61 139L60 138z"/>
<path style="fill:#e5ffb1; stroke:none;" d="M77.6667 138.333C77.2222 138.778 78.2778 138.722 78.3333 138.667C78.7778 138.222 77.7222 138.278 77.6667 138.333z"/>
<path style="fill:#63655e; stroke:none;" d="M80 138L81 139L80 138z"/>
<path style="fill:#e0ffb3; stroke:none;" d="M182 138L183 139L182 138z"/>
<path style="fill:#b3de6a; stroke:none;" d="M183 138L184 139L183 138z"/>
<path style="fill:#dbf5ae; stroke:none;" d="M63.6667 139.333C63.2222 139.778 64.2778 139.722 64.3333 139.667C64.7778 139.222 63.7222 139.278 63.6667 139.333z"/>
<path style="fill:#99c053; stroke:none;" d="M65 139C66.769 139.779 68.0359 139.912 70 140C68.2309 139.221 66.9641 139.088 65 139z"/>
<path style="fill:#d6f5af; stroke:none;" d="M70.6667 139.333C70.2222 139.778 71.2778 139.722 71.3333 139.667C71.7778 139.222 70.7222 139.278 70.6667 139.333z"/>
<path style="fill:#20211f; stroke:none;" d="M184 139L185 140L184 139z"/>
<path style="fill:#e4ffc2; stroke:none;" d="M187 139C188.248 139.685 188.548 139.749 190 140C188.752 139.315 188.452 139.251 187 139z"/>
<path style="fill:#99c053; stroke:none;" d="M190 139C192.052 139.874 193.747 139.953 196 140C193.948 139.126 192.253 139.047 190 139z"/>
<path style="fill:#20211f; stroke:none;" d="M198 139L199 140L198 139z"/>
</svg>
